<?xml version="1.0" standalone="no"?>
<!DOCTYPE svg PUBLIC "-//W3C//DTD SVG 20010904//EN"
 "http://www.w3.org/TR/2001/REC-SVG-20010904/DTD/svg10.dtd">
<svg version="1.0" xmlns="http://www.w3.org/2000/svg"
 width="310.000000pt" height="310.000000pt" viewBox="0 0 310.000000 310.000000"
 preserveAspectRatio="xMidYMid meet">
<metadata>
Created by potrace 1.11, written by Peter Selinger 2001-2013
</metadata>
<g transform="translate(0.000000,310.000000) scale(0.100000,-0.100000)"
fill="#000000" stroke="none">
<path d="M820 2030 c-135 -32 -239 -80 -349 -160 -100 -73 -173 -161 -229
-276 -43 -89 -54 -142 -51 -241 3 -76 9 -98 37 -155 59 -120 180 -193 387
-233 71 -14 146 -18 350 -19 255 -1 261 -1 301 22 37 22 74 66 74 90 0 6 -104
12 -272 14 -240 5 -280 8 -330 25 -160 56 -226 157 -215 326 8 134 67 256 176
364 55 55 150 107 214 118 l37 6 0 -43 c1 -127 127 -225 254 -198 88 19 144
67 163 140 l9 35 505 0 504 0 32 -23 c68 -49 60 -152 -19 -229 -24 -22 -79
-60 -123 -83 -130 -68 -134 -75 -85 -167 17 -31 30 -69 30 -85 0 -74 -57 -130
-166 -163 -61 -18 -244 -32 -244 -18 0 9 25 79 175 491 43 119 59 175 51 178
-7 3 -70 3 -141 2 l-129 -3 -18 -45 c-9 -25 -28 -78 -42 -117 -15 -40 -37
-103 -50 -140 -14 -38 -43 -122 -66 -188 -23 -66 -52 -149 -65 -185 -14 -36
-28 -80 -31 -97 l-6 -33 198 0 c240 0 393 12 496 39 266 69 366 212 285 410
-25 62 -27 81 -6 81 5 0 46 21 89 46 156 90 230 183 230 291 0 120 -67 196
-202 228 -51 12 -160 15 -583 15 l-520 0 -45 -75 c-25 -41 -48 -75 -51 -75 -4
0 -12 13 -19 30 -14 34 -80 97 -116 110 -45 17 -340 10 -424 -10z"/>
</g>
</svg>
